<svg xmlns="http://www.w3.org/2000/svg" xmlns:xlink="http://www.w3.org/1999/xlink" preserveAspectRatio="xMidYMid" width="372" height="47" viewBox="0 0 372 47">
  <defs>
    <style>
      .cls-1 {
        fill: #000;
        fill-rule: evenodd;
      }
    </style>
  </defs>
  <path d="M370.073,46.705 L349.099,45.666 L352.027,1.499 L371.994,5.808 L370.073,46.705 ZM358.217,34.985 L358.546,36.172 L359.560,37.260 L361.750,37.709 L363.548,37.446 L364.419,34.190 L363.503,31.891 L360.623,30.716 L358.684,33.142 L358.217,34.985 ZM363.217,12.963 L361.435,12.880 L360.305,14.346 L359.391,17.600 L360.263,21.806 L359.950,22.138 L359.883,23.610 L359.995,27.693 L360.973,29.561 L361.397,29.580 L363.213,28.928 L363.262,27.845 L363.939,22.324 L363.564,21.222 L364.108,18.601 L365.245,16.051 L363.217,12.963 ZM324.231,2.571 L347.761,2.167 L348.317,45.500 L324.957,45.901 L324.231,2.571 ZM345.062,13.483 L344.637,13.490 L344.345,13.798 L341.367,13.546 L340.657,14.295 L339.269,17.656 L339.698,17.952 L340.725,18.368 L341.185,17.927 L341.160,16.453 L342.156,15.006 L342.586,15.345 L343.661,18.621 L343.648,17.884 L344.383,16.051 L345.796,14.207 L345.062,13.483 ZM338.755,25.033 L339.095,25.027 L340.041,20.634 L339.744,20.639 L339.324,20.949 L338.755,25.033 ZM339.293,36.856 L340.330,37.879 L340.797,37.871 L342.951,37.097 L344.322,37.810 L346.344,36.779 L346.734,37.206 L347.699,36.495 L347.692,36.062 L347.249,35.029 L345.761,34.925 L344.984,34.202 L345.401,33.761 L344.649,31.954 L344.908,29.695 L344.556,26.407 L344.846,25.969 L344.506,23.417 L344.785,22.329 L344.481,21.944 L344.463,20.861 L344.013,19.352 L343.418,19.362 L342.483,34.548 L339.273,35.643 L339.293,36.856 ZM339.119,26.501 L338.780,26.506 L338.797,27.546 L339.132,27.281 L339.119,26.501 ZM325.942,15.891 L328.068,16.028 L328.801,16.666 L328.826,18.139 L329.567,19.296 L329.300,21.121 L329.603,21.419 L329.313,21.858 L328.926,24.118 L329.369,25.194 L328.691,30.407 L329.092,34.041 L328.050,35.229 L326.563,35.254 L326.573,35.861 L326.199,36.344 L326.599,37.378 L328.807,37.340 L329.584,38.063 L330.943,38.040 L334.293,37.679 L335.633,36.486 L336.367,37.210 L336.375,37.643 L337.526,37.927 L337.819,37.618 L338.540,35.049 L338.923,35.042 L338.496,32.406 L338.853,30.883 L338.465,30.543 L338.842,30.233 L338.822,29.063 L338.435,28.766 L337.373,28.784 L337.391,29.824 L336.978,30.568 L336.244,29.844 L336.219,28.371 L335.120,26.136 L334.324,21.772 L333.548,21.048 L333.989,19.524 L333.267,19.536 L333.566,22.132 L333.318,22.526 L334.108,26.586 L333.399,27.379 L334.430,28.098 L335.628,36.183 L335.293,36.491 L334.863,36.196 L334.251,35.122 L332.764,35.148 L330.870,33.663 L330.858,32.927 L331.276,32.530 L329.987,24.100 L330.399,23.313 L329.938,21.110 L330.307,17.810 L331.017,17.061 L333.510,18.795 L333.462,15.935 L331.688,14.015 L330.966,14.028 L330.549,14.468 L327.266,13.788 L326.974,14.096 L325.700,14.162 L325.330,14.905 L325.942,15.891 ZM298.008,42.095 L300.231,4.807 L323.559,6.102 L321.336,43.389 L298.008,42.095 ZM319.837,23.090 L319.079,17.449 L318.101,16.657 L317.757,15.162 L314.669,11.693 L309.706,10.636 L305.183,13.249 L303.256,15.833 L301.930,19.102 L301.028,21.612 L301.471,22.071 L301.399,23.412 L300.455,27.483 L300.688,27.887 L300.630,28.968 L300.937,31.937 L301.658,31.977 L301.672,31.717 L301.995,31.258 L302.676,32.033 L302.634,32.812 L303.739,33.611 L304.420,34.387 L305.059,35.160 L305.017,35.939 L309.346,36.917 L310.034,37.563 L314.054,37.178 L314.815,36.483 L315.217,35.333 L317.502,33.203 L317.535,32.597 L318.322,31.426 L320.083,25.621 L319.837,23.090 ZM315.820,24.213 L314.696,25.322 L314.158,28.981 L313.397,29.677 L313.670,30.126 L313.630,30.862 L311.767,32.277 L311.046,32.237 L310.367,31.419 L309.590,32.417 L308.529,32.358 L307.183,30.504 L306.420,30.462 L306.541,28.211 L305.497,27.068 L305.262,18.853 L305.940,18.890 L306.720,17.848 L306.479,16.012 L307.240,15.317 L309.127,14.249 L310.586,14.027 L312.028,14.107 L313.009,15.637 L314.154,15.700 L315.391,17.983 L315.333,19.064 L315.738,19.434 L315.291,19.843 L315.232,20.925 L315.956,21.703 L315.820,24.213 ZM272.233,3.774 L295.595,3.551 L295.976,44.478 L271.320,45.074 L272.233,3.774 ZM276.102,36.044 L277.974,36.329 L279.026,35.279 L280.088,35.269 L281.542,36.295 L282.986,36.281 L284.140,37.007 L284.434,36.701 L285.156,36.694 L289.142,35.919 L290.569,33.999 L291.982,30.648 L291.216,25.931 L287.956,22.626 L283.274,21.587 L281.408,21.952 L281.065,21.608 L281.062,21.218 L279.957,21.229 L278.545,20.159 L277.796,17.219 L278.508,16.129 L278.108,14.312 L278.487,13.918 L278.827,13.915 L279.898,14.945 L281.003,14.935 L281.754,13.541 L283.921,13.520 L286.737,14.880 L288.624,16.769 L288.974,17.849 L290.432,19.308 L290.769,19.002 L290.005,14.545 L290.720,13.802 L290.710,12.718 L290.366,12.288 L289.644,12.295 L289.224,12.733 L289.237,14.206 L288.606,14.862 L287.450,13.833 L287.446,13.486 L282.034,11.631 L279.879,12.822 L278.098,13.142 L278.105,13.922 L276.628,14.976 L275.923,16.890 L276.372,19.443 L278.177,21.636 L279.971,22.702 L279.978,23.439 L280.700,23.432 L280.697,23.128 L281.412,22.341 L282.148,23.851 L286.101,24.117 L289.343,25.603 L289.778,26.682 L289.091,30.372 L288.039,31.466 L286.906,32.950 L284.109,33.714 L281.511,33.002 L278.981,30.469 L278.621,28.262 L277.892,27.532 L276.444,27.199 L276.023,27.550 L276.027,27.940 L276.482,31.230 L275.751,34.877 L276.102,36.044 ZM243.953,43.105 L247.142,0.005 L270.560,1.780 L267.372,44.880 L243.953,43.105 ZM259.695,32.899 L260.418,32.954 L261.403,34.112 L261.327,35.147 L261.996,35.934 L263.451,36.521 L263.784,36.070 L264.585,35.090 L264.532,31.749 L263.863,30.961 L262.773,31.225 L261.703,30.061 L261.735,29.630 L262.186,29.317 L262.484,29.340 L262.561,28.305 L261.496,28.225 L260.378,27.707 L259.991,28.891 L260.925,30.739 L260.104,31.413 L259.806,31.390 L259.301,32.436 L259.695,32.899 ZM264.326,28.743 L263.305,28.665 L263.449,30.193 L264.215,30.251 L264.326,28.743 ZM262.245,22.734 L261.904,22.708 L261.850,23.440 L262.191,23.466 L262.245,22.734 ZM258.456,29.381 L258.558,28.002 L258.335,27.552 L257.834,27.947 L258.456,29.381 ZM258.327,17.236 L256.545,15.280 L257.434,13.094 L256.492,11.939 L254.012,11.317 L253.554,11.716 L250.075,10.716 L247.727,12.358 L247.996,12.768 L247.970,13.113 L251.152,14.091 L251.861,14.925 L251.839,15.227 L251.412,16.365 L252.266,19.290 L251.894,19.695 L250.744,19.608 L250.664,20.686 L251.706,22.238 L251.131,24.795 L250.279,25.901 L250.682,26.235 L249.796,28.378 L250.440,29.510 L249.848,31.719 L247.250,32.693 L246.094,34.425 L246.370,34.750 L249.273,35.446 L250.372,35.053 L252.934,35.724 L253.310,35.276 L253.573,35.772 L254.034,35.331 L256.511,35.995 L257.292,35.274 L257.346,34.542 L256.702,33.409 L255.936,33.351 L253.521,32.431 L253.616,21.299 L254.028,20.941 L253.855,18.067 L254.799,15.148 L255.097,15.170 L255.501,15.505 L254.963,16.981 L256.027,18.231 L256.918,20.076 L257.836,23.873 L259.445,25.859 L259.556,24.350 L259.285,22.813 L257.815,18.367 L258.327,17.236 ZM269.047,14.711 L268.995,13.103 L268.213,12.091 L263.039,12.002 L261.997,11.619 L259.728,12.184 L259.393,13.242 L259.935,14.020 L262.095,14.921 L262.500,14.648 L263.485,15.806 L263.463,16.108 L263.792,22.071 L263.261,24.631 L263.691,26.917 L264.159,26.953 L264.245,25.789 L264.735,23.226 L264.516,22.126 L265.511,18.517 L265.274,15.942 L266.503,14.951 L268.269,15.389 L269.047,14.711 ZM217.114,40.983 L217.604,2.106 L241.261,1.765 L240.771,40.642 L217.114,40.983 ZM229.968,9.767 L229.226,9.044 L228.194,9.059 L228.209,10.094 L229.978,10.499 L229.968,9.767 ZM239.815,30.829 L239.073,30.107 L236.531,29.799 L235.442,28.824 L235.420,27.315 L234.672,26.119 L233.433,20.621 L232.343,19.559 L232.312,17.361 L231.566,16.338 L230.788,13.030 L230.014,13.041 L230.029,14.119 L230.548,17.387 L230.092,18.600 L231.311,19.574 L231.648,22.155 L230.637,23.678 L230.159,23.340 L226.594,23.736 L225.852,22.971 L225.847,22.670 L226.132,21.502 L225.826,21.161 L226.081,17.882 L226.845,17.139 L227.232,17.133 L227.519,13.077 L228.240,12.334 L227.165,12.350 L226.459,14.170 L226.081,17.882 L225.017,18.673 L225.031,19.664 L224.310,20.450 L224.342,22.691 L223.335,24.516 L222.650,27.801 L221.466,29.284 L217.912,30.412 L217.508,32.315 L217.943,32.653 L218.244,32.649 L220.061,33.355 L223.025,33.011 L225.997,33.270 L226.294,32.964 L226.724,32.958 L227.783,31.779 L226.681,29.941 L225.166,29.231 L224.747,26.995 L225.130,26.731 L231.403,26.167 L232.453,27.358 L232.457,27.660 L232.904,28.860 L232.187,29.862 L231.456,29.872 L230.266,30.967 L230.019,31.746 L230.761,32.468 L237.352,33.106 L237.735,32.799 L239.111,32.779 L239.831,31.993 L239.815,30.829 ZM188.920,3.563 L212.335,3.184 L213.089,42.683 L189.674,43.062 L188.920,3.563 ZM190.812,12.701 L191.171,13.859 L194.121,14.544 L194.412,14.108 L195.148,14.872 L194.856,15.265 L195.918,17.834 L195.218,19.310 L196.010,23.651 L195.779,25.163 L196.393,26.274 L195.889,32.144 L191.819,33.287 L191.837,34.450 L192.956,35.165 L197.968,34.351 L199.463,34.629 L199.884,34.320 L201.676,34.593 L202.389,33.849 L201.958,33.511 L201.951,33.123 L201.228,33.135 L198.710,32.831 L197.933,32.110 L197.892,29.568 L197.150,28.373 L197.501,23.627 L198.213,22.882 L202.950,23.538 L205.497,25.739 L206.268,28.700 L205.901,29.740 L206.324,32.276 L207.419,34.198 L207.838,33.760 L208.136,33.756 L208.914,34.476 L209.293,34.168 L211.128,34.440 L211.379,34.134 L212.558,33.339 L212.127,32.958 L212.121,32.614 L210.624,32.207 L209.615,32.999 L209.269,32.660 L208.545,32.671 L207.377,31.527 L207.367,30.880 L207.763,28.977 L207.297,26.442 L205.802,23.492 L209.419,20.589 L210.112,18.639 L209.751,14.636 L207.496,12.086 L203.520,11.116 L202.035,11.442 L201.300,10.721 L200.881,11.159 L197.596,10.781 L195.814,11.241 L195.552,10.814 L195.084,10.822 L191.472,11.311 L190.802,12.055 L190.812,12.701 ZM202.368,13.678 L202.799,13.973 L204.582,13.642 L207.123,15.411 L206.843,16.579 L207.146,16.876 L207.162,17.910 L206.129,19.910 L202.484,21.003 L201.772,21.747 L201.048,21.759 L199.967,20.742 L198.520,20.766 L198.432,15.207 L200.287,14.013 L202.368,13.678 ZM151.916,44.529 L154.212,1.478 L177.684,2.761 L175.388,45.811 L151.916,44.529 ZM168.942,19.813 L167.462,19.473 L167.193,19.717 L166.643,21.198 L165.069,22.623 L164.304,23.316 L162.869,22.935 L161.910,21.674 L161.662,19.890 L162.029,19.435 L161.917,15.111 L162.684,14.376 L168.100,13.938 L168.139,13.206 L167.814,12.886 L165.322,13.052 L164.144,12.685 L162.739,13.342 L162.378,12.891 L155.864,12.233 L155.045,13.959 L155.325,14.319 L157.948,14.894 L159.721,14.559 L160.407,15.331 L160.138,26.801 L159.645,29.624 L159.945,30.417 L159.526,31.862 L157.994,33.290 L153.987,33.805 L153.479,35.288 L154.576,36.385 L156.086,36.165 L157.094,36.522 L157.409,36.237 L159.612,36.660 L162.872,36.535 L164.776,36.942 L166.883,36.755 L168.745,37.159 L169.509,36.466 L171.003,36.548 L172.346,37.053 L172.796,36.646 L173.753,32.337 L173.365,31.582 L174.249,28.651 L173.563,27.880 L172.837,27.840 L172.518,28.211 L170.792,32.478 L168.454,34.595 L165.959,34.027 L165.210,34.418 L161.990,33.810 L161.303,33.039 L161.400,31.231 L160.687,30.156 L161.391,24.970 L162.156,24.277 L165.442,24.457 L166.128,25.229 L166.835,26.433 L166.308,27.483 L166.955,28.987 L167.297,29.005 L168.506,27.992 L168.238,24.998 L169.080,22.842 L168.942,19.813 ZM173.579,13.935 L173.280,13.918 L171.526,13.089 L169.551,14.017 L169.959,14.385 L170.319,14.059 L172.401,16.763 L172.524,19.274 L173.898,21.594 L174.341,21.316 L174.017,19.356 L174.460,19.078 L173.579,13.935 ZM126.873,4.189 L150.371,3.592 L151.447,44.896 L127.948,45.493 L126.873,4.189 ZM128.814,15.110 L129.185,16.265 L132.152,16.922 L132.440,16.484 L133.186,17.241 L132.896,17.637 L133.986,20.197 L133.297,21.680 L134.132,26.015 L133.913,27.530 L134.539,28.635 L134.087,34.512 L130.012,35.694 L130.042,36.858 L131.171,37.562 L136.194,36.701 L137.697,36.965 L138.116,36.652 L139.919,36.909 L140.626,36.157 L140.191,35.823 L140.181,35.436 L139.455,35.454 L136.925,35.173 L136.138,34.460 L136.074,31.917 L135.318,30.729 L135.627,25.977 L136.335,25.226 L141.096,25.838 L143.672,28.015 L144.473,30.971 L144.114,32.015 L144.562,34.548 L145.679,36.460 L146.095,36.018 L146.394,36.011 L147.182,36.724 L147.559,36.412 L149.403,36.668 L149.652,36.359 L150.829,35.553 L150.392,35.176 L150.384,34.831 L148.877,34.438 L147.871,35.240 L147.521,34.904 L146.795,34.922 L145.612,33.788 L145.596,33.142 L145.976,31.234 L145.485,28.702 L143.958,25.765 L147.562,22.827 L148.239,20.869 L147.840,16.869 L145.554,14.339 L141.555,13.406 L140.067,13.745 L139.322,13.031 L138.906,13.473 L135.605,13.126 L133.822,13.602 L133.555,13.178 L133.085,13.190 L129.464,13.713 L128.798,14.463 L128.814,15.110 ZM140.422,15.979 L140.857,16.270 L142.644,15.923 L145.210,17.669 L144.940,18.840 L145.246,19.134 L145.272,20.169 L144.253,22.178 L140.605,23.306 L139.897,24.057 L139.171,24.076 L138.077,23.068 L136.624,23.105 L136.485,17.545 L138.336,16.334 L140.422,15.979 ZM99.025,5.616 L122.417,4.482 L124.455,42.141 L99.289,43.874 L99.025,5.616 ZM101.831,27.991 L102.105,28.366 L102.156,29.443 L102.762,32.347 L103.485,32.312 L103.473,32.054 L103.748,31.566 L104.506,32.262 L104.543,33.037 L105.726,33.713 L106.483,34.410 L107.199,35.109 L107.235,35.884 L111.650,36.403 L112.402,36.970 L116.371,36.174 L117.060,35.407 L117.345,34.228 L119.408,31.885 L119.379,31.282 L120.045,30.042 L121.214,24.118 L120.713,21.639 L119.387,16.138 L118.332,15.456 L117.837,14.013 L114.408,10.900 L109.352,10.369 L105.106,13.422 L103.446,16.178 L102.455,19.548 L101.809,22.125 L102.298,22.533 L102.361,23.867 L101.831,27.991 ZM107.104,17.812 L106.679,16.021 L107.367,15.254 L109.141,14.003 L110.573,13.632 L112.018,13.562 L113.151,14.974 L114.299,14.918 L115.764,17.047 L115.815,18.123 L116.257,18.447 L115.852,18.898 L115.903,19.974 L116.703,20.669 L116.821,23.166 L115.813,24.380 L115.646,28.055 L114.958,28.822 L115.276,29.238 L115.310,29.970 L113.595,31.563 L112.872,31.598 L112.113,30.858 L111.439,31.926 L110.375,31.978 L108.846,30.283 L108.080,30.320 L107.974,28.082 L106.817,27.059 L105.752,18.957 L106.432,18.924 L107.104,17.812 ZM68.597,45.032 L70.950,0.806 L96.277,2.126 L93.754,46.343 L68.597,45.032 ZM85.063,27.826 L84.000,27.766 L83.944,28.799 L83.479,29.507 L82.796,28.735 L82.876,27.272 L81.935,24.975 L81.451,20.588 L80.725,19.814 L81.275,18.334 L80.553,18.293 L80.666,20.890 L80.390,21.263 L80.892,25.348 L80.127,26.082 L81.107,26.870 L81.730,34.976 L81.373,35.259 L80.964,34.934 L80.428,33.824 L78.940,33.741 L77.152,32.130 L77.192,31.399 L77.638,31.035 L76.949,22.580 L77.417,21.830 L77.112,19.611 L77.716,16.365 L78.478,15.674 L80.848,17.576 L81.003,14.736 L79.366,12.703 L78.643,12.662 L78.195,13.068 L74.961,12.153 L74.647,12.438 L73.369,12.410 L72.946,13.120 L73.487,14.143 L75.604,14.434 L76.291,15.120 L76.211,16.583 L76.870,17.785 L76.474,19.576 L76.755,19.894 L76.434,20.307 L75.886,22.521 L76.253,23.620 L75.205,28.741 L75.347,32.374 L74.221,33.477 L72.733,33.393 L72.700,33.996 L72.292,34.447 L72.618,35.502 L74.828,35.626 L75.554,36.400 L76.914,36.476 L80.289,36.363 L81.713,35.278 L82.396,36.050 L82.372,36.480 L83.504,36.846 L83.818,36.561 L84.722,34.065 L85.105,34.087 L84.866,31.440 L85.331,29.956 L84.967,29.590 L85.366,29.310 L85.429,28.149 L85.063,27.826 ZM85.512,26.642 L85.866,26.403 L85.908,25.629 L85.568,25.610 L85.512,26.642 ZM85.648,24.147 L85.988,24.166 L87.246,19.877 L86.949,19.860 L86.507,20.138 L85.648,24.147 ZM92.774,13.152 L92.349,13.128 L92.035,13.412 L89.076,12.945 L88.313,13.636 L86.686,16.868 L87.095,17.193 L88.092,17.680 L88.583,17.276 L88.663,15.813 L89.761,14.450 L90.167,14.818 L91.009,18.146 L91.049,17.414 L91.913,15.650 L93.457,13.924 L92.774,13.152 ZM93.799,35.739 L93.430,34.683 L91.949,34.470 L91.224,33.696 L91.673,33.289 L91.049,31.442 L91.469,29.221 L91.350,25.934 L91.671,25.520 L91.513,22.965 L91.869,21.906 L91.593,21.502 L91.652,20.426 L91.309,18.896 L90.713,18.863 L88.699,33.856 L85.412,34.708 L85.346,35.913 L86.310,37.003 L86.777,37.029 L88.986,36.419 L90.306,37.227 L92.401,36.351 L92.760,36.803 L93.775,36.169 L93.799,35.739 ZM30.441,44.028 L31.493,2.942 L54.904,3.528 L53.853,44.614 L30.441,44.028 ZM51.719,24.097 L50.790,18.513 L49.787,17.755 L49.397,16.279 L46.199,12.923 L41.195,12.022 L36.741,14.756 L34.888,17.382 L33.658,20.671 L32.830,23.194 L33.288,23.636 L33.255,24.972 L32.432,29.046 L32.677,29.440 L32.651,30.517 L33.048,33.459 L33.772,33.477 L33.778,33.218 L34.087,32.752 L34.793,33.502 L34.774,34.278 L35.906,35.039 L36.611,35.789 L37.275,36.539 L37.256,37.314 L41.622,38.156 L42.331,38.778 L46.347,38.274 L47.088,37.560 L47.457,36.405 L49.683,34.220 L49.698,33.616 L50.451,32.428 L52.041,26.605 L51.719,24.097 ZM47.728,25.333 L46.635,26.470 L46.205,30.123 L45.464,30.838 L45.751,31.276 L45.733,32.008 L43.909,33.472 L43.185,33.453 L42.480,32.660 L41.731,33.676 L40.667,33.649 L39.263,31.847 L38.497,31.827 L38.552,29.587 L37.471,28.482 L36.989,20.323 L37.670,20.340 L38.420,19.281 L38.123,17.463 L38.865,16.749 L40.724,15.631 L42.178,15.366 L43.626,15.402 L44.654,16.894 L45.803,16.922 L47.112,19.153 L47.085,20.231 L47.503,20.586 L47.066,21.006 L47.040,22.083 L47.789,22.835 L47.728,25.333 ZM-0.001,3.993 L23.374,2.545 L25.977,45.559 L2.602,47.008 L-0.001,3.993 ZM23.605,15.526 L23.339,13.945 L22.432,13.052 L17.307,13.671 L16.227,13.436 L14.061,14.304 L13.871,15.396 L14.510,16.090 L16.765,16.684 L17.129,16.359 L18.256,17.369 L18.275,17.670 L19.396,23.516 L19.212,26.118 L19.943,28.317 L20.410,28.288 L20.340,27.127 L20.481,24.528 L20.119,23.471 L20.620,19.770 L20.041,17.258 L21.124,16.112 L22.927,16.302 L23.605,15.526 ZM17.615,24.403 L17.660,25.134 L18.000,25.113 L17.955,24.382 L17.615,24.403 ZM19.794,30.097 L20.140,31.586 L20.905,31.539 L20.814,30.033 L19.794,30.097 ZM16.793,34.773 L17.515,34.728 L18.643,35.738 L18.705,36.770 L19.472,37.457 L20.988,37.838 L21.257,37.346 L21.917,36.269 L21.419,32.975 L20.652,32.289 L19.610,32.699 L18.398,31.694 L18.372,31.264 L18.776,30.894 L19.074,30.875 L19.011,29.843 L17.949,29.909 L16.775,29.550 L16.550,30.773 L17.720,32.471 L16.999,33.249 L16.701,33.267 L16.342,34.369 L16.793,34.773 ZM3.874,38.423 L6.835,38.715 L7.869,38.176 L10.490,38.488 L10.802,37.994 L11.128,38.449 L11.524,37.949 L14.060,38.267 L14.736,37.448 L14.692,36.717 L13.904,35.686 L13.139,35.733 L10.630,35.155 L9.239,24.145 L9.598,23.734 L9.044,20.919 L9.586,17.906 L9.884,17.888 L10.327,18.163 L9.993,19.694 L11.211,20.785 L12.338,22.485 L13.752,26.110 L15.606,27.852 L15.515,26.347 L15.041,24.865 L12.996,20.674 L13.351,19.486 L11.329,17.798 L11.916,15.517 L10.831,14.505 L8.297,14.230 L7.899,14.686 L4.327,14.174 L2.226,16.117 L2.547,16.486 L2.568,16.830 L5.842,17.361 L6.654,18.088 L6.672,18.389 L6.402,19.572 L7.637,22.344 L7.323,22.796 L6.175,22.867 L6.240,23.942 L7.476,25.334 L7.250,27.938 L6.555,29.147 L6.998,29.422 L6.409,31.660 L7.196,32.691 L6.906,34.954 L4.469,36.271 L3.559,38.141 L3.874,38.423 ZM15.099,31.467 L15.016,30.091 L14.735,29.676 L14.294,30.135 L15.099,31.467 Z" class="cls-1"/>
</svg>
